<svg xmlns="http://www.w3.org/2000/svg" xmlns:xlink="http://www.w3.org/1999/xlink" id="Layer_1" x="0" y="0" version="1.1" viewBox="0 0 90 90" xml:space="preserve" style="enable-background:new 0 0 90 90"><style type="text/css">.st0{fill:url(#SVGID_1_)}.st1{fill:url(#SVGID_2_)}.st2{fill:url(#SVGID_3_)}</style><linearGradient id="SVGID_1_" x1="14.647" x2="67.772" y1="84.356" y2="14.356" gradientTransform="matrix(1 0 0 -1 0 92)" gradientUnits="userSpaceOnUse"><stop offset=".212" style="stop-color:#7ce490"/><stop offset="1" style="stop-color:#4ed8a0"/></linearGradient><path d="M75,20.9c0-0.1,0-0.2-0.1-0.3v-0.1c0-0.1-0.1-0.2-0.2-0.3l-20-20c-0.1-0.1-0.2-0.1-0.3-0.2h-0.1	c-0.1,0-0.2,0-0.3,0c0,0,0,0-0.1,0H20c-2.8,0-5,2.2-5,5v68c0,2.8,2.2,5,5,5h50c2.8,0,5-2.2,5-5V20.9C75,21,75,21,75,20.9z" class="st0"/><linearGradient id="SVGID_2_" x1="62.55" x2="52.55" y1="79.531" y2="69.281" gradientTransform="matrix(1 0 0 -1 0 92)" gradientUnits="userSpaceOnUse"><stop offset="0" style="stop-color:#f2fff4"/><stop offset="1" style="stop-color:#a5f3b4"/></linearGradient><path d="M71.6,20H58c-1.7,0-3-1.4-3-3V3.4L71.6,20z" class="st1"/><linearGradient id="SVGID_3_" x1="64.963" x2="19.338" y1="11.435" y2="74.435" gradientUnits="userSpaceOnUse"><stop offset="0" style="stop-color:#f2fff4"/><stop offset="1" style="stop-color:#a5f3b4"/></linearGradient><path d="M58,22c-2.8,0-5-2.3-5-5V2H20c-1.7,0-3,1.3-3,3v68c0,1.7,1.3,3,3,3h50c1.7,0,3-1.3,3-3V22H58z M60,40.7	L43.6,57.1c-1.8,1.8-4.8,1.8-6.6,0L30,50.2c-0.8-0.8-0.8-2.1,0-2.9l2.7-2.7c0.8-0.8,2.1-0.8,2.9,0l3.1,3.1c0.8,0.8,2.1,0.8,2.9,0	l12.6-12.6c0.8-0.8,2.1-0.8,2.9,0l2.7,2.7C60.8,38.6,60.8,39.9,60,40.7z" class="st2"/></svg>